<svg xmlns="http://www.w3.org/2000/svg" xmlns:xlink="http://www.w3.org/1999/xlink" width="159.009" height="300" viewBox="0 0 159.009 300">
  <defs>
    <clipPath id="clip-path">
      <rect id="Rectangle_4" data-name="Rectangle 4" width="159.009" height="300" fill="#4ea672"/>
    </clipPath>
  </defs>
  <g id="Group_5" data-name="Group 5" clip-path="url(#clip-path)">
    <path id="Path_9" data-name="Path 9" d="M53.457,297.849a84.781,84.781,0,0,1-20.363-6.269,53.177,53.177,0,0,1-15.277-10.572A46.485,46.485,0,0,1,7.634,265.339a99.6,99.6,0,0,1-5.679-20.95A160.639,160.639,0,0,1,0,218.145V82.048Q0,60.122,4.305,44.354T18.013,18.8q9.4-9.79,24.576-14.3T79.5,0a145.854,145.854,0,0,1,25.849,2.056,83.866,83.866,0,0,1,20.268,6.168A48.1,48.1,0,0,1,140.7,18.9a59.108,59.108,0,0,1,10.379,15.568,77.748,77.748,0,0,1,6.071,20.855,173.569,173.569,0,0,1,1.86,26.727v136.1q0,21.736-4.308,37.4t-13.808,25.46q-9.5,9.794-24.478,14.393T79.5,300a142.928,142.928,0,0,1-26.045-2.151m29.768-48.662a9.1,9.1,0,0,0,2.937-1.569,7.281,7.281,0,0,0,2.151-2.837,14.732,14.732,0,0,0,1.077-4.308q.294-2.543.492-6.071t.193-7.64V72.256q0-3.911-.193-7.145t-.492-5.777a14.732,14.732,0,0,0-1.077-4.308,6.907,6.907,0,0,0-2.053-2.742,8.956,8.956,0,0,0-2.94-1.469,13.632,13.632,0,0,0-3.819-.49,14.684,14.684,0,0,0-3.916.49,7.816,7.816,0,0,0-2.937,1.469,7.4,7.4,0,0,0-1.958,2.742,17,17,0,0,0-1.175,4.308q-.394,2.547-.587,5.578t-.2,7.343V226.762q0,4.314.2,7.738c.129,2.283.325,4.277.587,5.973a17,17,0,0,0,1.175,4.308,8.344,8.344,0,0,0,1.958,2.837,7.02,7.02,0,0,0,2.937,1.569,14.571,14.571,0,0,0,3.916.49,12.555,12.555,0,0,0,3.723-.49" fill="#4ea672"/>
  </g>
</svg>
