<svg width="373" height="53" viewBox="0 0 373 53" fill="none" xmlns="http://www.w3.org/2000/svg">
<path d="M4.24951 11.335H4.57951V20.32C4.57951 21.235 4.89451 21.295 6.51451 21.4V22H1.03951V21.4C2.65951 21.295 3.10951 21.235 3.10951 20.32V13.36H1.03951V12.895L1.50451 12.835C2.94451 12.625 3.51451 12.355 4.24951 11.335ZM7.81869 21.055C7.81869 20.44 8.29869 19.96 8.91369 19.96C9.52869 19.96 10.0087 20.44 10.0087 21.055C10.0087 21.67 9.52869 22.15 8.91369 22.15C8.29869 22.15 7.81869 21.67 7.81869 21.055ZM13.0564 20.725H15.5014C16.7614 20.725 17.2264 20.59 17.9614 19.18H18.3964L17.7814 22H11.2114V21.67L13.8364 18.91C15.8464 16.795 16.3264 15.85 16.3264 14.605C16.3264 13.285 15.6064 12.55 14.3164 12.55C13.1764 12.55 12.4114 13.255 11.7814 13.96L11.4364 13.615C12.0514 12.46 13.1464 11.32 14.8414 11.32C16.7614 11.32 17.8714 12.52 17.8714 14.335C17.8714 16.525 15.5914 18.145 13.0564 20.725ZM25.3958 11.47V12.895H21.2258L20.8658 15.19C23.7008 15.325 25.8908 16.315 25.8908 18.82C25.8908 20.77 24.5108 22.15 22.4558 22.15C20.3108 22.15 19.1858 21.13 19.1858 20.05C19.1858 19.525 19.5158 19.15 19.8158 18.985H20.6858V19.495C20.6858 20.74 21.3008 21.475 22.5308 21.475C23.8808 21.475 24.5858 20.62 24.5858 19.345C24.5858 17.335 22.5908 16.48 19.9208 16.465L20.7158 11.47H25.3958Z" fill="black"/>
<path d="M38.048 13.39L38.798 14.155L36.248 16.705L38.783 19.255L38.033 20.02L35.468 17.485L32.963 20.02L32.183 19.255L34.718 16.705L32.168 14.17L32.948 13.39L35.483 15.955L38.048 13.39Z" fill="black"/>
<path d="M48.1953 11.335H48.5253V20.32C48.5253 21.235 48.8403 21.295 50.4603 21.4V22H44.9853V21.4C46.6053 21.295 47.0553 21.235 47.0553 20.32V13.36H44.9853V12.895L45.4503 12.835C46.8903 12.625 47.4603 12.355 48.1953 11.335ZM53.0325 20.725H55.4775C56.7375 20.725 57.2025 20.59 57.9375 19.18H58.3725L57.7575 22H51.1875V21.67L53.8125 18.91C55.8225 16.795 56.3025 15.85 56.3025 14.605C56.3025 13.285 55.5825 12.55 54.2925 12.55C53.1525 12.55 52.3875 13.255 51.7575 13.96L51.4125 13.615C52.0275 12.46 53.1225 11.32 54.8175 11.32C56.7375 11.32 57.8475 12.52 57.8475 14.335C57.8475 16.525 55.5675 18.145 53.0325 20.725ZM66.0318 13.84C66.0318 15.055 64.9818 15.925 63.9618 16.255L64.4868 16.51C65.6268 17.08 66.4368 17.89 66.4368 19.21C66.4368 20.785 65.3568 22.15 62.8968 22.15C60.7968 22.15 59.3568 21.025 59.3568 19.33C59.3568 18.01 60.3618 17.125 61.6518 16.69L61.4718 16.6C60.4518 16.09 59.7618 15.37 59.7618 14.08C59.7618 12.55 60.8568 11.32 62.8968 11.32C64.8018 11.32 66.0318 12.34 66.0318 13.84ZM63.6318 17.635L62.0418 16.885C61.0818 17.47 60.7068 18.355 60.7068 19.33C60.7068 20.59 61.5768 21.445 62.8968 21.445C64.2318 21.445 65.1318 20.725 65.1318 19.525C65.1318 18.565 64.4568 18.025 63.6318 17.635ZM62.4318 15.46L63.5718 16.045C64.4718 15.505 64.7868 14.785 64.7868 13.84C64.7868 12.715 64.0218 12.025 62.8968 12.025C61.7268 12.025 61.0518 12.715 61.0518 13.69C61.0518 14.575 61.5318 14.995 62.4318 15.46ZM71.8032 11.32C74.4732 11.32 75.8832 13.72 75.8832 16.735C75.8832 19.75 74.4732 22.15 71.8032 22.15C69.1182 22.15 67.7082 19.75 67.7082 16.735C67.7082 13.72 69.1182 11.32 71.8032 11.32ZM71.8032 12.07C69.8832 12.07 69.3882 14.38 69.3882 16.735C69.3882 19.09 69.8832 21.415 71.8032 21.415C73.7082 21.415 74.2032 19.09 74.2032 16.735C74.2032 14.38 73.7082 12.07 71.8032 12.07Z" fill="black"/>
<path d="M80.0135 18.085H80.1185C81.4235 15.505 82.8935 13.9 84.2135 13.9C85.2035 13.9 85.8635 14.785 85.8635 16.03C85.8635 19.27 83.1335 22.15 80.8235 22.15C80.2235 22.15 79.6835 21.85 79.4435 21.49L79.0085 23.365C78.9635 23.545 78.9485 23.71 78.9485 23.83C78.9485 24.28 79.3835 24.355 79.9685 24.43L79.8335 24.955H76.0685L76.2035 24.43C76.9085 24.34 77.4485 24.265 77.6135 23.575L79.6685 15.145L78.5135 14.725L78.6035 14.41L80.8685 13.9H81.2435L80.7335 16.015L80.0135 18.085ZM83.5985 14.935C82.6835 14.935 80.5835 17.245 79.6835 20.29C79.6835 20.98 80.1335 21.505 80.7935 21.505C82.6985 21.505 84.4235 18.595 84.4385 16.15C84.4385 15.325 84.1235 14.935 83.5985 14.935ZM88.5105 20.215L89.7855 18.34L88.8855 15.13L87.4905 14.74L87.5955 14.425L89.6955 13.9H89.8905L90.7605 17.08L91.9155 15.25C92.4405 14.41 92.9055 13.9 93.5655 13.9C94.1655 13.9 94.5855 14.23 94.5855 14.845C94.5855 15.34 94.2405 15.655 93.9555 15.82H93.7455C93.7455 15.175 93.4755 14.965 93.1605 14.965C92.8155 14.965 92.6505 15.16 92.2155 15.835L90.9555 17.77L91.6155 20.155C91.8105 20.845 91.8705 21.085 92.1555 21.085C92.6055 21.085 93.1755 20.59 93.7455 19.99L94.0305 20.35C92.9055 21.7 92.2455 22.15 91.5855 22.15C90.9555 22.15 90.6855 21.475 90.4755 20.725L89.9805 19.015L88.7955 20.8C88.2855 21.58 87.8805 22.15 87.0555 22.15C86.5305 22.15 86.1105 21.805 86.1105 21.22C86.1105 20.665 86.4255 20.305 86.7405 20.14H86.9505C86.9505 20.815 87.1905 21.1 87.5355 21.1C87.8805 21.1 88.0305 20.905 88.5105 20.215Z" fill="black"/>
<line y1="27.5" x2="95" y2="27.5" stroke="black"/>
<path d="M38.5864 36.335H38.9164V45.32C38.9164 46.235 39.2314 46.295 40.8514 46.4V47H35.3764V46.4C36.9964 46.295 37.4464 46.235 37.4464 45.32V38.36H35.3764V37.895L35.8414 37.835C37.2814 37.625 37.8514 37.355 38.5864 36.335ZM45.8906 36.32C48.5606 36.32 49.9706 38.72 49.9706 41.735C49.9706 44.75 48.5606 47.15 45.8906 47.15C43.2056 47.15 41.7956 44.75 41.7956 41.735C41.7956 38.72 43.2056 36.32 45.8906 36.32ZM45.8906 37.07C43.9706 37.07 43.4756 39.38 43.4756 41.735C43.4756 44.09 43.9706 46.415 45.8906 46.415C47.7956 46.415 48.2906 44.09 48.2906 41.735C48.2906 39.38 47.7956 37.07 45.8906 37.07ZM55.4121 36.32C58.0821 36.32 59.4921 38.72 59.4921 41.735C59.4921 44.75 58.0821 47.15 55.4121 47.15C52.7271 47.15 51.3171 44.75 51.3171 41.735C51.3171 38.72 52.7271 36.32 55.4121 36.32ZM55.4121 37.07C53.4921 37.07 52.9971 39.38 52.9971 41.735C52.9971 44.09 53.4921 46.415 55.4121 46.415C57.3171 46.415 57.8121 44.09 57.8121 41.735C57.8121 39.38 57.3171 37.07 55.4121 37.07Z" fill="black"/>
<path d="M104.023 27.18H107.008V28.245H104.023V31.335H102.943V28.245H99.958V27.18H102.943V24.075H104.023V27.18Z" fill="black"/>
<path d="M116.108 22.335H116.438V31.32C116.438 32.235 116.753 32.295 118.373 32.4V33H112.898V32.4C114.518 32.295 114.968 32.235 114.968 31.32V24.36H112.898V23.895L113.363 23.835C114.803 23.625 115.373 23.355 116.108 22.335Z" fill="black"/>
<path d="M130.048 24.39L130.798 25.155L128.248 27.705L130.783 30.255L130.033 31.02L127.468 28.485L124.963 31.02L124.183 30.255L126.718 27.705L124.168 25.17L124.948 24.39L127.483 26.955L130.048 24.39Z" fill="black"/>
<path d="M139.787 22.335H140.117V31.32C140.117 32.235 140.432 32.295 142.052 32.4V33H136.577V32.4C138.197 32.295 138.647 32.235 138.647 31.32V24.36H136.577V23.895L137.042 23.835C138.482 23.625 139.052 23.355 139.787 22.335ZM149.401 22.815C146.506 23.655 144.871 25.515 144.601 27.57C145.246 26.835 146.251 26.355 147.286 26.355C149.086 26.355 150.346 27.495 150.346 29.46C150.346 31.695 148.831 33.15 146.761 33.15C144.361 33.15 142.996 31.275 142.996 28.845C142.996 25.395 145.306 22.965 149.101 22.335L149.401 22.815ZM146.491 27.345C145.741 27.345 144.991 27.66 144.571 27.975C144.541 28.23 144.526 28.635 144.526 28.83C144.526 31.035 145.486 32.445 146.851 32.445C148.171 32.445 148.861 31.47 148.861 29.925C148.861 28.29 148.006 27.345 146.491 27.345Z" fill="black"/>
<path d="M154.013 29.085H154.118C155.423 26.505 156.893 24.9 158.213 24.9C159.203 24.9 159.863 25.785 159.863 27.03C159.863 30.27 157.133 33.15 154.823 33.15C154.223 33.15 153.683 32.85 153.443 32.49L153.008 34.365C152.963 34.545 152.948 34.71 152.948 34.83C152.948 35.28 153.383 35.355 153.968 35.43L153.833 35.955H150.068L150.203 35.43C150.908 35.34 151.448 35.265 151.613 34.575L153.668 26.145L152.513 25.725L152.603 25.41L154.868 24.9H155.243L154.733 27.015L154.013 29.085ZM157.598 25.935C156.683 25.935 154.583 28.245 153.683 31.29C153.683 31.98 154.133 32.505 154.793 32.505C156.698 32.505 158.423 29.595 158.438 27.15C158.438 26.325 158.123 25.935 157.598 25.935ZM162.511 31.215L163.786 29.34L162.886 26.13L161.491 25.74L161.596 25.425L163.696 24.9H163.891L164.761 28.08L165.916 26.25C166.441 25.41 166.906 24.9 167.566 24.9C168.166 24.9 168.586 25.23 168.586 25.845C168.586 26.34 168.241 26.655 167.956 26.82H167.746C167.746 26.175 167.476 25.965 167.161 25.965C166.816 25.965 166.651 26.16 166.216 26.835L164.956 28.77L165.616 31.155C165.811 31.845 165.871 32.085 166.156 32.085C166.606 32.085 167.176 31.59 167.746 30.99L168.031 31.35C166.906 32.7 166.246 33.15 165.586 33.15C164.956 33.15 164.686 32.475 164.476 31.725L163.981 30.015L162.796 31.8C162.286 32.58 161.881 33.15 161.056 33.15C160.531 33.15 160.111 32.805 160.111 32.22C160.111 31.665 160.426 31.305 160.741 31.14H160.951C160.951 31.815 161.191 32.1 161.536 32.1C161.881 32.1 162.031 31.905 162.511 31.215Z" fill="black"/>
<path d="M174.048 26.76V25.695H180.918V26.76H174.048ZM174.048 29.745V28.68H180.918V29.745H174.048Z" fill="black"/>
<path d="M189.787 22.335H190.117V31.32C190.117 32.235 190.432 32.295 192.052 32.4V33H186.577V32.4C188.197 32.295 188.647 32.235 188.647 31.32V24.36H186.577V23.895L187.042 23.835C188.482 23.625 189.052 23.355 189.787 22.335ZM199.401 22.815C196.506 23.655 194.871 25.515 194.601 27.57C195.246 26.835 196.251 26.355 197.286 26.355C199.086 26.355 200.346 27.495 200.346 29.46C200.346 31.695 198.831 33.15 196.761 33.15C194.361 33.15 192.996 31.275 192.996 28.845C192.996 25.395 195.306 22.965 199.101 22.335L199.401 22.815ZM196.491 27.345C195.741 27.345 194.991 27.66 194.571 27.975C194.541 28.23 194.526 28.635 194.526 28.83C194.526 31.035 195.486 32.445 196.851 32.445C198.171 32.445 198.861 31.47 198.861 29.925C198.861 28.29 198.006 27.345 196.491 27.345Z" fill="black"/>
<path d="M204.013 29.085H204.118C205.423 26.505 206.893 24.9 208.213 24.9C209.203 24.9 209.863 25.785 209.863 27.03C209.863 30.27 207.133 33.15 204.823 33.15C204.223 33.15 203.683 32.85 203.443 32.49L203.008 34.365C202.963 34.545 202.948 34.71 202.948 34.83C202.948 35.28 203.383 35.355 203.968 35.43L203.833 35.955H200.068L200.203 35.43C200.908 35.34 201.448 35.265 201.613 34.575L203.668 26.145L202.513 25.725L202.603 25.41L204.868 24.9H205.243L204.733 27.015L204.013 29.085ZM207.598 25.935C206.683 25.935 204.583 28.245 203.683 31.29C203.683 31.98 204.133 32.505 204.793 32.505C206.698 32.505 208.423 29.595 208.438 27.15C208.438 26.325 208.123 25.935 207.598 25.935ZM212.511 31.215L213.786 29.34L212.886 26.13L211.491 25.74L211.596 25.425L213.696 24.9H213.891L214.761 28.08L215.916 26.25C216.441 25.41 216.906 24.9 217.566 24.9C218.166 24.9 218.586 25.23 218.586 25.845C218.586 26.34 218.241 26.655 217.956 26.82H217.746C217.746 26.175 217.476 25.965 217.161 25.965C216.816 25.965 216.651 26.16 216.216 26.835L214.956 28.77L215.616 31.155C215.811 31.845 215.871 32.085 216.156 32.085C216.606 32.085 217.176 31.59 217.746 30.99L218.031 31.35C216.906 32.7 216.246 33.15 215.586 33.15C214.956 33.15 214.686 32.475 214.476 31.725L213.981 30.015L212.796 31.8C212.286 32.58 211.881 33.15 211.056 33.15C210.531 33.15 210.111 32.805 210.111 32.22C210.111 31.665 210.426 31.305 210.741 31.14H210.951C210.951 31.815 211.191 32.1 211.536 32.1C211.881 32.1 212.031 31.905 212.511 31.215Z" fill="black"/>
<path d="M228.023 27.18H231.008V28.245H228.023V31.335H226.943V28.245H223.958V27.18H226.943V24.075H228.023V27.18Z" fill="black"/>
<path d="M239.787 22.335H240.117V31.32C240.117 32.235 240.432 32.295 242.052 32.4V33H236.577V32.4C238.197 32.295 238.647 32.235 238.647 31.32V24.36H236.577V23.895L237.042 23.835C238.482 23.625 239.052 23.355 239.787 22.335ZM249.401 22.815C246.506 23.655 244.871 25.515 244.601 27.57C245.246 26.835 246.251 26.355 247.286 26.355C249.086 26.355 250.346 27.495 250.346 29.46C250.346 31.695 248.831 33.15 246.761 33.15C244.361 33.15 242.996 31.275 242.996 28.845C242.996 25.395 245.306 22.965 249.101 22.335L249.401 22.815ZM246.491 27.345C245.741 27.345 244.991 27.66 244.571 27.975C244.541 28.23 244.526 28.635 244.526 28.83C244.526 31.035 245.486 32.445 246.851 32.445C248.171 32.445 248.861 31.47 248.861 29.925C248.861 28.29 248.006 27.345 246.491 27.345Z" fill="black"/>
<path d="M254.013 29.085H254.118C255.423 26.505 256.893 24.9 258.213 24.9C259.203 24.9 259.863 25.785 259.863 27.03C259.863 30.27 257.133 33.15 254.823 33.15C254.223 33.15 253.683 32.85 253.443 32.49L253.008 34.365C252.963 34.545 252.948 34.71 252.948 34.83C252.948 35.28 253.383 35.355 253.968 35.43L253.833 35.955H250.068L250.203 35.43C250.908 35.34 251.448 35.265 251.613 34.575L253.668 26.145L252.513 25.725L252.603 25.41L254.868 24.9H255.243L254.733 27.015L254.013 29.085ZM257.598 25.935C256.683 25.935 254.583 28.245 253.683 31.29C253.683 31.98 254.133 32.505 254.793 32.505C256.698 32.505 258.423 29.595 258.438 27.15C258.438 26.325 258.123 25.935 257.598 25.935ZM262.511 31.215L263.786 29.34L262.886 26.13L261.491 25.74L261.596 25.425L263.696 24.9H263.891L264.761 28.08L265.916 26.25C266.441 25.41 266.906 24.9 267.566 24.9C268.166 24.9 268.586 25.23 268.586 25.845C268.586 26.34 268.241 26.655 267.956 26.82H267.746C267.746 26.175 267.476 25.965 267.161 25.965C266.816 25.965 266.651 26.16 266.216 26.835L264.956 28.77L265.616 31.155C265.811 31.845 265.871 32.085 266.156 32.085C266.606 32.085 267.176 31.59 267.746 30.99L268.031 31.35C266.906 32.7 266.246 33.15 265.586 33.15C264.956 33.15 264.686 32.475 264.476 31.725L263.981 30.015L262.796 31.8C262.286 32.58 261.881 33.15 261.056 33.15C260.531 33.15 260.111 32.805 260.111 32.22C260.111 31.665 260.426 31.305 260.741 31.14H260.951C260.951 31.815 261.191 32.1 261.536 32.1C261.881 32.1 262.031 31.905 262.511 31.215Z" fill="black"/>
<path d="M274.048 26.76V25.695H280.918V26.76H274.048ZM274.048 29.745V28.68H280.918V29.745H274.048Z" fill="black"/>
<path d="M290.453 27.045C292.328 27.24 293.543 28.365 293.543 29.88C293.543 31.95 291.848 33.15 289.868 33.15C287.663 33.15 286.508 32.13 286.508 31.05C286.508 30.525 286.853 30.15 287.168 29.985H287.978V30.495C287.978 31.74 288.683 32.475 289.958 32.475C291.293 32.475 292.013 31.65 292.013 30.345C292.013 28.755 290.723 27.975 288.968 27.975H288.443L288.338 27.465C290.078 27.03 291.443 26.445 291.443 24.975C291.443 24.015 290.753 23.475 289.793 23.475C288.773 23.475 287.978 24.075 287.513 24.885L287.138 24.585C287.648 23.385 288.698 22.32 290.333 22.32C291.968 22.32 292.913 23.295 292.913 24.615C292.913 26.01 291.563 26.79 290.453 27.045ZM296.098 31.725H298.543C299.803 31.725 300.268 31.59 301.003 30.18H301.438L300.823 33H294.253V32.67L296.878 29.91C298.888 27.795 299.368 26.85 299.368 25.605C299.368 24.285 298.648 23.55 297.358 23.55C296.218 23.55 295.453 24.255 294.823 24.96L294.478 24.615C295.093 23.46 296.188 22.32 297.883 22.32C299.803 22.32 300.913 23.52 300.913 25.335C300.913 27.525 298.633 29.145 296.098 31.725Z" fill="black"/>
<path d="M305.013 29.085H305.118C306.423 26.505 307.893 24.9 309.213 24.9C310.203 24.9 310.863 25.785 310.863 27.03C310.863 30.27 308.133 33.15 305.823 33.15C305.223 33.15 304.683 32.85 304.443 32.49L304.008 34.365C303.963 34.545 303.948 34.71 303.948 34.83C303.948 35.28 304.383 35.355 304.968 35.43L304.833 35.955H301.068L301.203 35.43C301.908 35.34 302.448 35.265 302.613 34.575L304.668 26.145L303.513 25.725L303.603 25.41L305.868 24.9H306.243L305.733 27.015L305.013 29.085ZM308.598 25.935C307.683 25.935 305.583 28.245 304.683 31.29C304.683 31.98 305.133 32.505 305.793 32.505C307.698 32.505 309.423 29.595 309.438 27.15C309.438 26.325 309.123 25.935 308.598 25.935ZM313.511 31.215L314.786 29.34L313.886 26.13L312.491 25.74L312.596 25.425L314.696 24.9H314.891L315.761 28.08L316.916 26.25C317.441 25.41 317.906 24.9 318.566 24.9C319.166 24.9 319.586 25.23 319.586 25.845C319.586 26.34 319.241 26.655 318.956 26.82H318.746C318.746 26.175 318.476 25.965 318.161 25.965C317.816 25.965 317.651 26.16 317.216 26.835L315.956 28.77L316.616 31.155C316.811 31.845 316.871 32.085 317.156 32.085C317.606 32.085 318.176 31.59 318.746 30.99L319.031 31.35C317.906 32.7 317.246 33.15 316.586 33.15C315.956 33.15 315.686 32.475 315.476 31.725L314.981 30.015L313.796 31.8C313.286 32.58 312.881 33.15 312.056 33.15C311.531 33.15 311.111 32.805 311.111 32.22C311.111 31.665 311.426 31.305 311.741 31.14H311.951C311.951 31.815 312.191 32.1 312.536 32.1C312.881 32.1 313.031 31.905 313.511 31.215Z" fill="black"/>
<path d="M325.048 26.76V25.695H331.918V26.76H325.048ZM325.048 29.745V28.68H331.918V29.745H325.048Z" fill="black"/>
<path d="M339.143 31.725H341.588C342.848 31.725 343.313 31.59 344.048 30.18H344.483L343.868 33H337.298V32.67L339.923 29.91C341.933 27.795 342.413 26.85 342.413 25.605C342.413 24.285 341.693 23.55 340.403 23.55C339.263 23.55 338.498 24.255 337.868 24.96L337.523 24.615C338.138 23.46 339.233 22.32 340.928 22.32C342.848 22.32 343.958 23.52 343.958 25.335C343.958 27.525 341.678 29.145 339.143 31.725Z" fill="black"/>
<path d="M347.847 29.985H347.952C349.467 26.88 350.667 24.9 351.717 24.9C352.332 24.9 352.557 25.365 352.557 25.815C352.557 26.445 352.212 26.775 351.642 27.045H351.417C351.417 26.76 351.357 26.49 350.997 26.49C350.232 26.49 348.267 29.28 347.352 33H345.987L347.682 26.19L346.542 25.725L346.632 25.41L348.897 24.9H349.272L348.642 27.39L347.847 29.985ZM358.917 26.55C358.917 28.365 356.232 29.145 354.042 29.73V30.12C354.042 31.425 354.657 32.265 355.662 32.265C356.547 32.265 357.342 31.695 358.032 30.87L358.407 31.17C357.297 32.64 356.367 33.15 355.167 33.15C353.412 33.15 352.707 31.68 352.707 30.15C352.707 27.57 354.732 24.9 357.162 24.9C358.377 24.9 358.917 25.62 358.917 26.55ZM356.757 25.65C355.557 25.65 354.372 27.21 354.102 29.25C356.457 28.545 357.657 27.855 357.657 26.67C357.657 26.1 357.342 25.65 356.757 25.65ZM366.397 28.68H366.502C367.402 27.195 369.052 24.9 370.507 24.9C371.272 24.9 371.527 25.305 371.527 25.965C371.527 26.16 371.482 26.43 371.437 26.625L370.207 31.26C370.132 31.545 370.072 31.8 370.072 31.92C370.072 32.07 370.147 32.145 370.282 32.145C370.567 32.145 371.002 31.845 371.677 31.02L371.977 31.335C371.062 32.7 370.402 33.15 369.652 33.15C369.082 33.15 368.722 32.745 368.722 32.13C368.722 31.785 368.782 31.41 368.932 30.84L370.042 26.7C370.087 26.505 370.117 26.325 370.117 26.205C370.117 25.995 370.042 25.89 369.847 25.89C368.902 25.89 366.697 28.32 366.067 30.885L365.542 33H364.177L365.767 26.7C365.812 26.505 365.842 26.325 365.842 26.205C365.842 25.995 365.767 25.89 365.572 25.89C364.627 25.89 362.422 28.32 361.792 30.885L361.267 33H359.902L361.597 26.19L360.457 25.725L360.547 25.41L362.812 24.9H363.187L362.722 26.835L362.137 28.68H362.242C363.142 27.195 364.777 24.9 366.232 24.9C366.952 24.9 367.132 25.305 367.132 25.83C367.132 26.31 366.907 27.21 366.397 28.68Z" fill="black"/>
</svg>
