<svg width="382" height="53" viewBox="0 0 382 53" fill="none" xmlns="http://www.w3.org/2000/svg">
<path d="M4.24951 11.335H4.57951V20.32C4.57951 21.235 4.89451 21.295 6.51451 21.4V22H1.03951V21.4C2.65951 21.295 3.10951 21.235 3.10951 20.32V13.36H1.03951V12.895L1.50451 12.835C2.94451 12.625 3.51451 12.355 4.24951 11.335ZM7.81869 21.055C7.81869 20.44 8.29869 19.96 8.91369 19.96C9.52869 19.96 10.0087 20.44 10.0087 21.055C10.0087 21.67 9.52869 22.15 8.91369 22.15C8.29869 22.15 7.81869 21.67 7.81869 21.055ZM13.0564 20.725H15.5014C16.7614 20.725 17.2264 20.59 17.9614 19.18H18.3964L17.7814 22H11.2114V21.67L13.8364 18.91C15.8464 16.795 16.3264 15.85 16.3264 14.605C16.3264 13.285 15.6064 12.55 14.3164 12.55C13.1764 12.55 12.4114 13.255 11.7814 13.96L11.4364 13.615C12.0514 12.46 13.1464 11.32 14.8414 11.32C16.7614 11.32 17.8714 12.52 17.8714 14.335C17.8714 16.525 15.5914 18.145 13.0564 20.725ZM25.3958 11.47V12.895H21.2258L20.8658 15.19C23.7008 15.325 25.8908 16.315 25.8908 18.82C25.8908 20.77 24.5108 22.15 22.4558 22.15C20.3108 22.15 19.1858 21.13 19.1858 20.05C19.1858 19.525 19.5158 19.15 19.8158 18.985H20.6858V19.495C20.6858 20.74 21.3008 21.475 22.5308 21.475C23.8808 21.475 24.5858 20.62 24.5858 19.345C24.5858 17.335 22.5908 16.48 19.9208 16.465L20.7158 11.47H25.3958Z" fill="black"/>
<path d="M38.048 13.39L38.798 14.155L36.248 16.705L38.783 19.255L38.033 20.02L35.468 17.485L32.963 20.02L32.183 19.255L34.718 16.705L32.168 14.17L32.948 13.39L35.483 15.955L38.048 13.39Z" fill="black"/>
<path d="M48.692 16.045C50.567 16.24 51.782 17.365 51.782 18.88C51.782 20.95 50.087 22.15 48.107 22.15C45.902 22.15 44.747 21.13 44.747 20.05C44.747 19.525 45.092 19.15 45.407 18.985H46.217V19.495C46.217 20.74 46.922 21.475 48.197 21.475C49.532 21.475 50.252 20.65 50.252 19.345C50.252 17.755 48.962 16.975 47.207 16.975H46.682L46.577 16.465C48.317 16.03 49.682 15.445 49.682 13.975C49.682 13.015 48.992 12.475 48.032 12.475C47.012 12.475 46.217 13.075 45.752 13.885L45.377 13.585C45.887 12.385 46.937 11.32 48.572 11.32C50.207 11.32 51.152 12.295 51.152 13.615C51.152 15.01 49.802 15.79 48.692 16.045ZM54.3371 20.725H56.7821C58.0421 20.725 58.5071 20.59 59.2421 19.18H59.6771L59.0621 22H52.4921V21.67L55.1171 18.91C57.1271 16.795 57.6071 15.85 57.6071 14.605C57.6071 13.285 56.8871 12.55 55.5971 12.55C54.4571 12.55 53.6921 13.255 53.0621 13.96L52.7171 13.615C53.3321 12.46 54.4271 11.32 56.1221 11.32C58.0421 11.32 59.1521 12.52 59.1521 14.335C59.1521 16.525 56.8721 18.145 54.3371 20.725ZM64.8315 11.32C67.5015 11.32 68.9115 13.72 68.9115 16.735C68.9115 19.75 67.5015 22.15 64.8315 22.15C62.1465 22.15 60.7365 19.75 60.7365 16.735C60.7365 13.72 62.1465 11.32 64.8315 11.32ZM64.8315 12.07C62.9115 12.07 62.4165 14.38 62.4165 16.735C62.4165 19.09 62.9115 21.415 64.8315 21.415C66.7365 21.415 67.2315 19.09 67.2315 16.735C67.2315 14.38 66.7365 12.07 64.8315 12.07Z" fill="black"/>
<path d="M73.0135 18.085H73.1185C74.4235 15.505 75.8935 13.9 77.2135 13.9C78.2035 13.9 78.8635 14.785 78.8635 16.03C78.8635 19.27 76.1335 22.15 73.8235 22.15C73.2235 22.15 72.6835 21.85 72.4435 21.49L72.0085 23.365C71.9635 23.545 71.9485 23.71 71.9485 23.83C71.9485 24.28 72.3835 24.355 72.9685 24.43L72.8335 24.955H69.0685L69.2035 24.43C69.9085 24.34 70.4485 24.265 70.6135 23.575L72.6685 15.145L71.5135 14.725L71.6035 14.41L73.8685 13.9H74.2435L73.7335 16.015L73.0135 18.085ZM76.5985 14.935C75.6835 14.935 73.5835 17.245 72.6835 20.29C72.6835 20.98 73.1335 21.505 73.7935 21.505C75.6985 21.505 77.4235 18.595 77.4385 16.15C77.4385 15.325 77.1235 14.935 76.5985 14.935ZM81.5105 20.215L82.7855 18.34L81.8855 15.13L80.4905 14.74L80.5955 14.425L82.6955 13.9H82.8905L83.7605 17.08L84.9155 15.25C85.4405 14.41 85.9055 13.9 86.5655 13.9C87.1655 13.9 87.5855 14.23 87.5855 14.845C87.5855 15.34 87.2405 15.655 86.9555 15.82H86.7455C86.7455 15.175 86.4755 14.965 86.1605 14.965C85.8155 14.965 85.6505 15.16 85.2155 15.835L83.9555 17.77L84.6155 20.155C84.8105 20.845 84.8705 21.085 85.1555 21.085C85.6055 21.085 86.1755 20.59 86.7455 19.99L87.0305 20.35C85.9055 21.7 85.2455 22.15 84.5855 22.15C83.9555 22.15 83.6855 21.475 83.4755 20.725L82.9805 19.015L81.7955 20.8C81.2855 21.58 80.8805 22.15 80.0555 22.15C79.5305 22.15 79.1105 21.805 79.1105 21.22C79.1105 20.665 79.4255 20.305 79.7405 20.14H79.9505C79.9505 20.815 80.1905 21.1 80.5355 21.1C80.8805 21.1 81.0305 20.905 81.5105 20.215Z" fill="black"/>
<line y1="27.5" x2="88" y2="27.5" stroke="black"/>
<path d="M35.0864 36.335H35.4164V45.32C35.4164 46.235 35.7314 46.295 37.3514 46.4V47H31.8764V46.4C33.4964 46.295 33.9464 46.235 33.9464 45.32V38.36H31.8764V37.895L32.3414 37.835C33.7814 37.625 34.3514 37.355 35.0864 36.335ZM42.3906 36.32C45.0606 36.32 46.4706 38.72 46.4706 41.735C46.4706 44.75 45.0606 47.15 42.3906 47.15C39.7056 47.15 38.2956 44.75 38.2956 41.735C38.2956 38.72 39.7056 36.32 42.3906 36.32ZM42.3906 37.07C40.4706 37.07 39.9756 39.38 39.9756 41.735C39.9756 44.09 40.4706 46.415 42.3906 46.415C44.2956 46.415 44.7906 44.09 44.7906 41.735C44.7906 39.38 44.2956 37.07 42.3906 37.07ZM51.9121 36.32C54.5821 36.32 55.9921 38.72 55.9921 41.735C55.9921 44.75 54.5821 47.15 51.9121 47.15C49.2271 47.15 47.8171 44.75 47.8171 41.735C47.8171 38.72 49.2271 36.32 51.9121 36.32ZM51.9121 37.07C49.9921 37.07 49.4971 39.38 49.4971 41.735C49.4971 44.09 49.9921 46.415 51.9121 46.415C53.8171 46.415 54.3121 44.09 54.3121 41.735C54.3121 39.38 53.8171 37.07 51.9121 37.07Z" fill="black"/>
<path d="M97.023 27.18H100.008V28.245H97.023V31.335H95.943V28.245H92.958V27.18H95.943V24.075H97.023V27.18Z" fill="black"/>
<path d="M109.108 22.335H109.438V31.32C109.438 32.235 109.753 32.295 111.373 32.4V33H105.898V32.4C107.518 32.295 107.968 32.235 107.968 31.32V24.36H105.898V23.895L106.363 23.835C107.803 23.625 108.373 23.355 109.108 22.335Z" fill="black"/>
<path d="M123.048 24.39L123.798 25.155L121.248 27.705L123.783 30.255L123.033 31.02L120.468 28.485L117.963 31.02L117.183 30.255L119.718 27.705L117.168 25.17L117.948 24.39L120.483 26.955L123.048 24.39Z" fill="black"/>
<path d="M132.787 22.335H133.117V31.32C133.117 32.235 133.432 32.295 135.052 32.4V33H129.577V32.4C131.197 32.295 131.647 32.235 131.647 31.32V24.36H129.577V23.895L130.042 23.835C131.482 23.625 132.052 23.355 132.787 22.335ZM142.401 22.815C139.506 23.655 137.871 25.515 137.601 27.57C138.246 26.835 139.251 26.355 140.286 26.355C142.086 26.355 143.346 27.495 143.346 29.46C143.346 31.695 141.831 33.15 139.761 33.15C137.361 33.15 135.996 31.275 135.996 28.845C135.996 25.395 138.306 22.965 142.101 22.335L142.401 22.815ZM139.491 27.345C138.741 27.345 137.991 27.66 137.571 27.975C137.541 28.23 137.526 28.635 137.526 28.83C137.526 31.035 138.486 32.445 139.851 32.445C141.171 32.445 141.861 31.47 141.861 29.925C141.861 28.29 141.006 27.345 139.491 27.345Z" fill="black"/>
<path d="M147.013 29.085H147.118C148.423 26.505 149.893 24.9 151.213 24.9C152.203 24.9 152.863 25.785 152.863 27.03C152.863 30.27 150.133 33.15 147.823 33.15C147.223 33.15 146.683 32.85 146.443 32.49L146.008 34.365C145.963 34.545 145.948 34.71 145.948 34.83C145.948 35.28 146.383 35.355 146.968 35.43L146.833 35.955H143.068L143.203 35.43C143.908 35.34 144.448 35.265 144.613 34.575L146.668 26.145L145.513 25.725L145.603 25.41L147.868 24.9H148.243L147.733 27.015L147.013 29.085ZM150.598 25.935C149.683 25.935 147.583 28.245 146.683 31.29C146.683 31.98 147.133 32.505 147.793 32.505C149.698 32.505 151.423 29.595 151.438 27.15C151.438 26.325 151.123 25.935 150.598 25.935ZM155.511 31.215L156.786 29.34L155.886 26.13L154.491 25.74L154.596 25.425L156.696 24.9H156.891L157.761 28.08L158.916 26.25C159.441 25.41 159.906 24.9 160.566 24.9C161.166 24.9 161.586 25.23 161.586 25.845C161.586 26.34 161.241 26.655 160.956 26.82H160.746C160.746 26.175 160.476 25.965 160.161 25.965C159.816 25.965 159.651 26.16 159.216 26.835L157.956 28.77L158.616 31.155C158.811 31.845 158.871 32.085 159.156 32.085C159.606 32.085 160.176 31.59 160.746 30.99L161.031 31.35C159.906 32.7 159.246 33.15 158.586 33.15C157.956 33.15 157.686 32.475 157.476 31.725L156.981 30.015L155.796 31.8C155.286 32.58 154.881 33.15 154.056 33.15C153.531 33.15 153.111 32.805 153.111 32.22C153.111 31.665 153.426 31.305 153.741 31.14H153.951C153.951 31.815 154.191 32.1 154.536 32.1C154.881 32.1 155.031 31.905 155.511 31.215Z" fill="black"/>
<path d="M167.048 26.76V25.695H173.918V26.76H167.048ZM167.048 29.745V28.68H173.918V29.745H167.048Z" fill="black"/>
<path d="M180.824 29.52H184.889V24.555L180.824 29.52ZM184.889 31.32V30.3H179.729V29.73L185.594 22.47H186.314V29.52H188.129V30.3H186.314V31.32C186.314 32.235 186.854 32.385 187.874 32.415V33H183.329V32.415C184.349 32.385 184.889 32.235 184.889 31.32Z" fill="black"/>
<path d="M192.013 29.085H192.118C193.423 26.505 194.893 24.9 196.213 24.9C197.203 24.9 197.863 25.785 197.863 27.03C197.863 30.27 195.133 33.15 192.823 33.15C192.223 33.15 191.683 32.85 191.443 32.49L191.008 34.365C190.963 34.545 190.948 34.71 190.948 34.83C190.948 35.28 191.383 35.355 191.968 35.43L191.833 35.955H188.068L188.203 35.43C188.908 35.34 189.448 35.265 189.613 34.575L191.668 26.145L190.513 25.725L190.603 25.41L192.868 24.9H193.243L192.733 27.015L192.013 29.085ZM195.598 25.935C194.683 25.935 192.583 28.245 191.683 31.29C191.683 31.98 192.133 32.505 192.793 32.505C194.698 32.505 196.423 29.595 196.438 27.15C196.438 26.325 196.123 25.935 195.598 25.935ZM200.511 31.215L201.786 29.34L200.886 26.13L199.491 25.74L199.596 25.425L201.696 24.9H201.891L202.761 28.08L203.916 26.25C204.441 25.41 204.906 24.9 205.566 24.9C206.166 24.9 206.586 25.23 206.586 25.845C206.586 26.34 206.241 26.655 205.956 26.82H205.746C205.746 26.175 205.476 25.965 205.161 25.965C204.816 25.965 204.651 26.16 204.216 26.835L202.956 28.77L203.616 31.155C203.811 31.845 203.871 32.085 204.156 32.085C204.606 32.085 205.176 31.59 205.746 30.99L206.031 31.35C204.906 32.7 204.246 33.15 203.586 33.15C202.956 33.15 202.686 32.475 202.476 31.725L201.981 30.015L200.796 31.8C200.286 32.58 199.881 33.15 199.056 33.15C198.531 33.15 198.111 32.805 198.111 32.22C198.111 31.665 198.426 31.305 198.741 31.14H198.951C198.951 31.815 199.191 32.1 199.536 32.1C199.881 32.1 200.031 31.905 200.511 31.215Z" fill="black"/>
<path d="M216.023 27.18H219.008V28.245H216.023V31.335H214.943V28.245H211.958V27.18H214.943V24.075H216.023V27.18Z" fill="black"/>
<path d="M227.787 22.335H228.117V31.32C228.117 32.235 228.432 32.295 230.052 32.4V33H224.577V32.4C226.197 32.295 226.647 32.235 226.647 31.32V24.36H224.577V23.895L225.042 23.835C226.482 23.625 227.052 23.355 227.787 22.335ZM237.401 22.815C234.506 23.655 232.871 25.515 232.601 27.57C233.246 26.835 234.251 26.355 235.286 26.355C237.086 26.355 238.346 27.495 238.346 29.46C238.346 31.695 236.831 33.15 234.761 33.15C232.361 33.15 230.996 31.275 230.996 28.845C230.996 25.395 233.306 22.965 237.101 22.335L237.401 22.815ZM234.491 27.345C233.741 27.345 232.991 27.66 232.571 27.975C232.541 28.23 232.526 28.635 232.526 28.83C232.526 31.035 233.486 32.445 234.851 32.445C236.171 32.445 236.861 31.47 236.861 29.925C236.861 28.29 236.006 27.345 234.491 27.345Z" fill="black"/>
<path d="M242.013 29.085H242.118C243.423 26.505 244.893 24.9 246.213 24.9C247.203 24.9 247.863 25.785 247.863 27.03C247.863 30.27 245.133 33.15 242.823 33.15C242.223 33.15 241.683 32.85 241.443 32.49L241.008 34.365C240.963 34.545 240.948 34.71 240.948 34.83C240.948 35.28 241.383 35.355 241.968 35.43L241.833 35.955H238.068L238.203 35.43C238.908 35.34 239.448 35.265 239.613 34.575L241.668 26.145L240.513 25.725L240.603 25.41L242.868 24.9H243.243L242.733 27.015L242.013 29.085ZM245.598 25.935C244.683 25.935 242.583 28.245 241.683 31.29C241.683 31.98 242.133 32.505 242.793 32.505C244.698 32.505 246.423 29.595 246.438 27.15C246.438 26.325 246.123 25.935 245.598 25.935ZM250.511 31.215L251.786 29.34L250.886 26.13L249.491 25.74L249.596 25.425L251.696 24.9H251.891L252.761 28.08L253.916 26.25C254.441 25.41 254.906 24.9 255.566 24.9C256.166 24.9 256.586 25.23 256.586 25.845C256.586 26.34 256.241 26.655 255.956 26.82H255.746C255.746 26.175 255.476 25.965 255.161 25.965C254.816 25.965 254.651 26.16 254.216 26.835L252.956 28.77L253.616 31.155C253.811 31.845 253.871 32.085 254.156 32.085C254.606 32.085 255.176 31.59 255.746 30.99L256.031 31.35C254.906 32.7 254.246 33.15 253.586 33.15C252.956 33.15 252.686 32.475 252.476 31.725L251.981 30.015L250.796 31.8C250.286 32.58 249.881 33.15 249.056 33.15C248.531 33.15 248.111 32.805 248.111 32.22C248.111 31.665 248.426 31.305 248.741 31.14H248.951C248.951 31.815 249.191 32.1 249.536 32.1C249.881 32.1 250.031 31.905 250.511 31.215Z" fill="black"/>
<path d="M262.048 26.76V25.695H268.918V26.76H262.048ZM262.048 29.745V28.68H268.918V29.745H262.048Z" fill="black"/>
<path d="M276.382 31.725H278.827C280.087 31.725 280.552 31.59 281.287 30.18H281.722L281.107 33H274.537V32.67L277.162 29.91C279.172 27.795 279.652 26.85 279.652 25.605C279.652 24.285 278.932 23.55 277.642 23.55C276.502 23.55 275.737 24.255 275.107 24.96L274.762 24.615C275.377 23.46 276.472 22.32 278.167 22.32C280.087 22.32 281.197 23.52 281.197 25.335C281.197 27.525 278.917 29.145 276.382 31.725ZM286.876 22.32C289.546 22.32 290.956 24.72 290.956 27.735C290.956 30.75 289.546 33.15 286.876 33.15C284.191 33.15 282.781 30.75 282.781 27.735C282.781 24.72 284.191 22.32 286.876 22.32ZM286.876 23.07C284.956 23.07 284.461 25.38 284.461 27.735C284.461 30.09 284.956 32.415 286.876 32.415C288.781 32.415 289.276 30.09 289.276 27.735C289.276 25.38 288.781 23.07 286.876 23.07Z" fill="black"/>
<path d="M295.013 29.085H295.118C296.423 26.505 297.893 24.9 299.213 24.9C300.203 24.9 300.863 25.785 300.863 27.03C300.863 30.27 298.133 33.15 295.823 33.15C295.223 33.15 294.683 32.85 294.443 32.49L294.008 34.365C293.963 34.545 293.948 34.71 293.948 34.83C293.948 35.28 294.383 35.355 294.968 35.43L294.833 35.955H291.068L291.203 35.43C291.908 35.34 292.448 35.265 292.613 34.575L294.668 26.145L293.513 25.725L293.603 25.41L295.868 24.9H296.243L295.733 27.015L295.013 29.085ZM298.598 25.935C297.683 25.935 295.583 28.245 294.683 31.29C294.683 31.98 295.133 32.505 295.793 32.505C297.698 32.505 299.423 29.595 299.438 27.15C299.438 26.325 299.123 25.935 298.598 25.935ZM303.511 31.215L304.786 29.34L303.886 26.13L302.491 25.74L302.596 25.425L304.696 24.9H304.891L305.761 28.08L306.916 26.25C307.441 25.41 307.906 24.9 308.566 24.9C309.166 24.9 309.586 25.23 309.586 25.845C309.586 26.34 309.241 26.655 308.956 26.82H308.746C308.746 26.175 308.476 25.965 308.161 25.965C307.816 25.965 307.651 26.16 307.216 26.835L305.956 28.77L306.616 31.155C306.811 31.845 306.871 32.085 307.156 32.085C307.606 32.085 308.176 31.59 308.746 30.99L309.031 31.35C307.906 32.7 307.246 33.15 306.586 33.15C305.956 33.15 305.686 32.475 305.476 31.725L304.981 30.015L303.796 31.8C303.286 32.58 302.881 33.15 302.056 33.15C301.531 33.15 301.111 32.805 301.111 32.22C301.111 31.665 301.426 31.305 301.741 31.14H301.951C301.951 31.815 302.191 32.1 302.536 32.1C302.881 32.1 303.031 31.905 303.511 31.215Z" fill="black"/>
<path d="M315.048 26.76V25.695H321.918V26.76H315.048ZM315.048 29.745V28.68H321.918V29.745H315.048Z" fill="black"/>
<path d="M331.25 22.335H331.58V31.32C331.58 32.235 331.895 32.295 333.515 32.4V33H328.04V32.4C329.66 32.295 330.11 32.235 330.11 31.32V24.36H328.04V23.895L328.505 23.835C329.945 23.625 330.515 23.355 331.25 22.335ZM334.819 32.055C334.819 31.44 335.299 30.96 335.914 30.96C336.529 30.96 337.009 31.44 337.009 32.055C337.009 32.67 336.529 33.15 335.914 33.15C335.299 33.15 334.819 32.67 334.819 32.055ZM340.056 31.725H342.501C343.761 31.725 344.226 31.59 344.961 30.18H345.396L344.781 33H338.211V32.67L340.836 29.91C342.846 27.795 343.326 26.85 343.326 25.605C343.326 24.285 342.606 23.55 341.316 23.55C340.176 23.55 339.411 24.255 338.781 24.96L338.436 24.615C339.051 23.46 340.146 22.32 341.841 22.32C343.761 22.32 344.871 23.52 344.871 25.335C344.871 27.525 342.591 29.145 340.056 31.725ZM352.396 22.47V23.895H348.226L347.866 26.19C350.701 26.325 352.891 27.315 352.891 29.82C352.891 31.77 351.511 33.15 349.456 33.15C347.311 33.15 346.186 32.13 346.186 31.05C346.186 30.525 346.516 30.15 346.816 29.985H347.686V30.495C347.686 31.74 348.301 32.475 349.531 32.475C350.881 32.475 351.586 31.62 351.586 30.345C351.586 28.335 349.591 27.48 346.921 27.465L347.716 22.47H352.396Z" fill="black"/>
<path d="M356.847 29.985H356.952C358.467 26.88 359.667 24.9 360.717 24.9C361.332 24.9 361.557 25.365 361.557 25.815C361.557 26.445 361.212 26.775 360.642 27.045H360.417C360.417 26.76 360.357 26.49 359.997 26.49C359.232 26.49 357.267 29.28 356.352 33H354.987L356.682 26.19L355.542 25.725L355.632 25.41L357.897 24.9H358.272L357.642 27.39L356.847 29.985ZM367.917 26.55C367.917 28.365 365.232 29.145 363.042 29.73V30.12C363.042 31.425 363.657 32.265 364.662 32.265C365.547 32.265 366.342 31.695 367.032 30.87L367.407 31.17C366.297 32.64 365.367 33.15 364.167 33.15C362.412 33.15 361.707 31.68 361.707 30.15C361.707 27.57 363.732 24.9 366.162 24.9C367.377 24.9 367.917 25.62 367.917 26.55ZM365.757 25.65C364.557 25.65 363.372 27.21 363.102 29.25C365.457 28.545 366.657 27.855 366.657 26.67C366.657 26.1 366.342 25.65 365.757 25.65ZM375.397 28.68H375.502C376.402 27.195 378.052 24.9 379.507 24.9C380.272 24.9 380.527 25.305 380.527 25.965C380.527 26.16 380.482 26.43 380.437 26.625L379.207 31.26C379.132 31.545 379.072 31.8 379.072 31.92C379.072 32.07 379.147 32.145 379.282 32.145C379.567 32.145 380.002 31.845 380.677 31.02L380.977 31.335C380.062 32.7 379.402 33.15 378.652 33.15C378.082 33.15 377.722 32.745 377.722 32.13C377.722 31.785 377.782 31.41 377.932 30.84L379.042 26.7C379.087 26.505 379.117 26.325 379.117 26.205C379.117 25.995 379.042 25.89 378.847 25.89C377.902 25.89 375.697 28.32 375.067 30.885L374.542 33H373.177L374.767 26.7C374.812 26.505 374.842 26.325 374.842 26.205C374.842 25.995 374.767 25.89 374.572 25.89C373.627 25.89 371.422 28.32 370.792 30.885L370.267 33H368.902L370.597 26.19L369.457 25.725L369.547 25.41L371.812 24.9H372.187L371.722 26.835L371.137 28.68H371.242C372.142 27.195 373.777 24.9 375.232 24.9C375.952 24.9 376.132 25.305 376.132 25.83C376.132 26.31 375.907 27.21 375.397 28.68Z" fill="black"/>
</svg>
