<svg width="340" height="78" viewBox="0 0 340 78" fill="none" xmlns="http://www.w3.org/2000/svg">
<path d="M19.253 41.045C21.128 41.24 22.343 42.365 22.343 43.88C22.343 45.95 20.648 47.15 18.668 47.15C16.463 47.15 15.308 46.13 15.308 45.05C15.308 44.525 15.653 44.15 15.968 43.985H16.778V44.495C16.778 45.74 17.483 46.475 18.758 46.475C20.093 46.475 20.813 45.65 20.813 44.345C20.813 42.755 19.523 41.975 17.768 41.975H17.243L17.138 41.465C18.878 41.03 20.243 40.445 20.243 38.975C20.243 38.015 19.553 37.475 18.593 37.475C17.573 37.475 16.778 38.075 16.313 38.885L15.938 38.585C16.448 37.385 17.498 36.32 19.133 36.32C20.768 36.32 21.713 37.295 21.713 38.615C21.713 40.01 20.363 40.79 19.253 41.045ZM24.8982 45.725H27.3432C28.6032 45.725 29.0682 45.59 29.8032 44.18H30.2382L29.6232 47H23.0532V46.67L25.6782 43.91C27.6882 41.795 28.1682 40.85 28.1682 39.605C28.1682 38.285 27.4482 37.55 26.1582 37.55C25.0182 37.55 24.2532 38.255 23.6232 38.96L23.2782 38.615C23.8932 37.46 24.9882 36.32 26.6832 36.32C28.6032 36.32 29.7132 37.52 29.7132 39.335C29.7132 41.525 27.4332 43.145 24.8982 45.725ZM38.6417 42.995H34.7417V41.855H38.6417V42.995ZM44.7761 45.725H47.2211C48.4811 45.725 48.9461 45.59 49.6811 44.18H50.1161L49.5011 47H42.9311V46.67L45.5561 43.91C47.5661 41.795 48.0461 40.85 48.0461 39.605C48.0461 38.285 47.3261 37.55 46.0361 37.55C44.8961 37.55 44.1311 38.255 43.5011 38.96L43.1561 38.615C43.7711 37.46 44.8661 36.32 46.5611 36.32C48.4811 36.32 49.5911 37.52 49.5911 39.335C49.5911 41.525 47.3111 43.145 44.7761 45.725ZM55.2705 36.32C57.9405 36.32 59.3505 38.72 59.3505 41.735C59.3505 44.75 57.9405 47.15 55.2705 47.15C52.5855 47.15 51.1755 44.75 51.1755 41.735C51.1755 38.72 52.5855 36.32 55.2705 36.32ZM55.2705 37.07C53.3505 37.07 52.8555 39.38 52.8555 41.735C52.8555 44.09 53.3505 46.415 55.2705 46.415C57.1755 46.415 57.6705 44.09 57.6705 41.735C57.6705 39.38 57.1755 37.07 55.2705 37.07Z" fill="black"/>
<line y1="52.5" x2="75" y2="52.5" stroke="black"/>
<path d="M6.54053 61.335H6.87053V70.32C6.87053 71.235 7.18553 71.295 8.80553 71.4V72H3.33053V71.4C4.95053 71.295 5.40053 71.235 5.40053 70.32V63.36H3.33053V62.895L3.79553 62.835C5.23553 62.625 5.80553 62.355 6.54053 61.335ZM11.3777 70.725H13.8227C15.0827 70.725 15.5477 70.59 16.2827 69.18H16.7177L16.1027 72H9.53268V71.67L12.1577 68.91C14.1677 66.795 14.6477 65.85 14.6477 64.605C14.6477 63.285 13.9277 62.55 12.6377 62.55C11.4977 62.55 10.7327 63.255 10.1027 63.96L9.75768 63.615C10.3727 62.46 11.4677 61.32 13.1627 61.32C15.0827 61.32 16.1927 62.52 16.1927 64.335C16.1927 66.525 13.9127 68.145 11.3777 70.725ZM24.3771 63.84C24.3771 65.055 23.3271 65.925 22.3071 66.255L22.8321 66.51C23.9721 67.08 24.7821 67.89 24.7821 69.21C24.7821 70.785 23.7021 72.15 21.2421 72.15C19.1421 72.15 17.7021 71.025 17.7021 69.33C17.7021 68.01 18.7071 67.125 19.9971 66.69L19.8171 66.6C18.7971 66.09 18.1071 65.37 18.1071 64.08C18.1071 62.55 19.2021 61.32 21.2421 61.32C23.1471 61.32 24.3771 62.34 24.3771 63.84ZM21.9771 67.635L20.3871 66.885C19.4271 67.47 19.0521 68.355 19.0521 69.33C19.0521 70.59 19.9221 71.445 21.2421 71.445C22.5771 71.445 23.4771 70.725 23.4771 69.525C23.4771 68.565 22.8021 68.025 21.9771 67.635ZM20.7771 65.46L21.9171 66.045C22.8171 65.505 23.1321 64.785 23.1321 63.84C23.1321 62.715 22.3671 62.025 21.2421 62.025C20.0721 62.025 19.3971 62.715 19.3971 63.69C19.3971 64.575 19.8771 64.995 20.7771 65.46ZM30.1484 61.32C32.8184 61.32 34.2284 63.72 34.2284 66.735C34.2284 69.75 32.8184 72.15 30.1484 72.15C27.4634 72.15 26.0534 69.75 26.0534 66.735C26.0534 63.72 27.4634 61.32 30.1484 61.32ZM30.1484 62.07C28.2284 62.07 27.7334 64.38 27.7334 66.735C27.7334 69.09 28.2284 71.415 30.1484 71.415C32.0534 71.415 32.5484 69.09 32.5484 66.735C32.5484 64.38 32.0534 62.07 30.1484 62.07ZM42.919 67.995H39.019V66.855H42.919V67.995ZM51.3185 66.045C53.1935 66.24 54.4085 67.365 54.4085 68.88C54.4085 70.95 52.7135 72.15 50.7335 72.15C48.5285 72.15 47.3735 71.13 47.3735 70.05C47.3735 69.525 47.7185 69.15 48.0335 68.985H48.8435V69.495C48.8435 70.74 49.5485 71.475 50.8235 71.475C52.1585 71.475 52.8785 70.65 52.8785 69.345C52.8785 67.755 51.5885 66.975 49.8335 66.975H49.3085L49.2035 66.465C50.9435 66.03 52.3085 65.445 52.3085 63.975C52.3085 63.015 51.6185 62.475 50.6585 62.475C49.6385 62.475 48.8435 63.075 48.3785 63.885L48.0035 63.585C48.5135 62.385 49.5635 61.32 51.1985 61.32C52.8335 61.32 53.7785 62.295 53.7785 63.615C53.7785 65.01 52.4285 65.79 51.3185 66.045ZM56.9636 70.725H59.4086C60.6686 70.725 61.1336 70.59 61.8686 69.18H62.3036L61.6886 72H55.1186V71.67L57.7436 68.91C59.7536 66.795 60.2336 65.85 60.2336 64.605C60.2336 63.285 59.5136 62.55 58.2236 62.55C57.0836 62.55 56.3186 63.255 55.6886 63.96L55.3436 63.615C55.9586 62.46 57.0536 61.32 58.7486 61.32C60.6686 61.32 61.7786 62.52 61.7786 64.335C61.7786 66.525 59.4986 68.145 56.9636 70.725ZM67.458 61.32C70.128 61.32 71.538 63.72 71.538 66.735C71.538 69.75 70.128 72.15 67.458 72.15C64.773 72.15 63.363 69.75 63.363 66.735C63.363 63.72 64.773 61.32 67.458 61.32ZM67.458 62.07C65.538 62.07 65.043 64.38 65.043 66.735C65.043 69.09 65.538 71.415 67.458 71.415C69.363 71.415 69.858 69.09 69.858 66.735C69.858 64.38 69.363 62.07 67.458 62.07Z" fill="black"/>
<path d="M86.048 49.39L86.798 50.155L84.248 52.705L86.783 55.255L86.033 56.02L83.468 53.485L80.963 56.02L80.183 55.255L82.718 52.705L80.168 50.17L80.948 49.39L83.483 51.955L86.048 49.39Z" fill="black"/>
<path d="M96.0864 47.335H96.4164V56.32C96.4164 57.235 96.7314 57.295 98.3514 57.4V58H92.8764V57.4C94.4964 57.295 94.9464 57.235 94.9464 56.32V49.36H92.8764V48.895L93.3414 48.835C94.7814 48.625 95.3514 48.355 96.0864 47.335ZM103.391 47.32C106.061 47.32 107.471 49.72 107.471 52.735C107.471 55.75 106.061 58.15 103.391 58.15C100.706 58.15 99.2956 55.75 99.2956 52.735C99.2956 49.72 100.706 47.32 103.391 47.32ZM103.391 48.07C101.471 48.07 100.976 50.38 100.976 52.735C100.976 55.09 101.471 57.415 103.391 57.415C105.296 57.415 105.791 55.09 105.791 52.735C105.791 50.38 105.296 48.07 103.391 48.07ZM112.912 47.32C115.582 47.32 116.992 49.72 116.992 52.735C116.992 55.75 115.582 58.15 112.912 58.15C110.227 58.15 108.817 55.75 108.817 52.735C108.817 49.72 110.227 47.32 112.912 47.32ZM112.912 48.07C110.992 48.07 110.497 50.38 110.497 52.735C110.497 55.09 110.992 57.415 112.912 57.415C114.817 57.415 115.312 55.09 115.312 52.735C115.312 50.38 114.817 48.07 112.912 48.07Z" fill="black"/>
<path d="M119.957 51.115L118.862 50.74L118.952 50.425L120.962 49.9H121.157L121.712 56.635L123.647 54.4C124.307 53.65 124.817 52.75 124.817 51.865C124.817 51.1 124.262 50.8 123.452 50.8V50.575C123.707 50.26 124.157 49.9 124.742 49.9C125.657 49.9 126.002 50.575 126.002 51.25C126.002 52.3 125.417 53.32 124.157 54.775L121.217 58.15H120.632L119.957 51.115ZM131.755 51.115L130.66 50.74L130.75 50.425L132.715 49.9H132.91L133.45 56.545L135.295 54.16C135.775 53.53 136.105 52.765 136.105 51.88C136.105 51.115 135.58 50.8 134.77 50.8V50.575C135.025 50.26 135.475 49.9 136.06 49.9C136.975 49.9 137.32 50.545 137.32 51.295C137.32 52.27 136.72 53.35 135.82 54.505L133.015 58.15H132.43L132.01 53.875L129.01 58.15H128.425L127.75 51.115L126.655 50.74L126.745 50.425L128.755 49.9H128.95L129.49 56.515L131.935 53.095L131.755 51.115Z" fill="black"/>
<path d="M147.023 52.18H150.008V53.245H147.023V56.335H145.943V53.245H142.958V52.18H145.943V49.075H147.023V52.18Z" fill="black"/>
<path d="M157.382 31.725H159.827C161.087 31.725 161.552 31.59 162.287 30.18H162.722L162.107 33H155.537V32.67L158.162 29.91C160.172 27.795 160.652 26.85 160.652 25.605C160.652 24.285 159.932 23.55 158.642 23.55C157.502 23.55 156.737 24.255 156.107 24.96L155.762 24.615C156.377 23.46 157.472 22.32 159.167 22.32C161.087 22.32 162.197 23.52 162.197 25.335C162.197 27.525 159.917 29.145 157.382 31.725ZM167.876 22.32C170.546 22.32 171.956 24.72 171.956 27.735C171.956 30.75 170.546 33.15 167.876 33.15C165.191 33.15 163.781 30.75 163.781 27.735C163.781 24.72 165.191 22.32 167.876 22.32ZM167.876 23.07C165.956 23.07 165.461 25.38 165.461 27.735C165.461 30.09 165.956 32.415 167.876 32.415C169.781 32.415 170.276 30.09 170.276 27.735C170.276 25.38 169.781 23.07 167.876 23.07Z" fill="black"/>
<path d="M181.947 28.995H178.047V27.855H181.947V28.995Z" fill="black"/>
<path d="M206.253 16.045C208.128 16.24 209.343 17.365 209.343 18.88C209.343 20.95 207.648 22.15 205.668 22.15C203.463 22.15 202.308 21.13 202.308 20.05C202.308 19.525 202.653 19.15 202.968 18.985H203.778V19.495C203.778 20.74 204.483 21.475 205.758 21.475C207.093 21.475 207.813 20.65 207.813 19.345C207.813 17.755 206.523 16.975 204.768 16.975H204.243L204.138 16.465C205.878 16.03 207.243 15.445 207.243 13.975C207.243 13.015 206.553 12.475 205.593 12.475C204.573 12.475 203.778 13.075 203.313 13.885L202.938 13.585C203.448 12.385 204.498 11.32 206.133 11.32C207.768 11.32 208.713 12.295 208.713 13.615C208.713 15.01 207.363 15.79 206.253 16.045ZM211.898 20.725H214.343C215.603 20.725 216.068 20.59 216.803 19.18H217.238L216.623 22H210.053V21.67L212.678 18.91C214.688 16.795 215.168 15.85 215.168 14.605C215.168 13.285 214.448 12.55 213.158 12.55C212.018 12.55 211.253 13.255 210.623 13.96L210.278 13.615C210.893 12.46 211.988 11.32 213.683 11.32C215.603 11.32 216.713 12.52 216.713 14.335C216.713 16.525 214.433 18.145 211.898 20.725ZM225.642 17.995H221.742V16.855H225.642V17.995ZM231.776 20.725H234.221C235.481 20.725 235.946 20.59 236.681 19.18H237.116L236.501 22H229.931V21.67L232.556 18.91C234.566 16.795 235.046 15.85 235.046 14.605C235.046 13.285 234.326 12.55 233.036 12.55C231.896 12.55 231.131 13.255 230.501 13.96L230.156 13.615C230.771 12.46 231.866 11.32 233.561 11.32C235.481 11.32 236.591 12.52 236.591 14.335C236.591 16.525 234.311 18.145 231.776 20.725ZM242.27 11.32C244.94 11.32 246.35 13.72 246.35 16.735C246.35 19.75 244.94 22.15 242.27 22.15C239.585 22.15 238.175 19.75 238.175 16.735C238.175 13.72 239.585 11.32 242.27 11.32ZM242.27 12.07C240.35 12.07 239.855 14.38 239.855 16.735C239.855 19.09 240.35 21.415 242.27 21.415C244.175 21.415 244.67 19.09 244.67 16.735C244.67 14.38 244.175 12.07 242.27 12.07Z" fill="black"/>
<line x1="187" y1="27.5" x2="262" y2="27.5" stroke="black"/>
<path d="M193.541 36.335H193.871V45.32C193.871 46.235 194.186 46.295 195.806 46.4V47H190.331V46.4C191.951 46.295 192.401 46.235 192.401 45.32V38.36H190.331V37.895L190.796 37.835C192.236 37.625 192.806 37.355 193.541 36.335ZM198.378 45.725H200.823C202.083 45.725 202.548 45.59 203.283 44.18H203.718L203.103 47H196.533V46.67L199.158 43.91C201.168 41.795 201.648 40.85 201.648 39.605C201.648 38.285 200.928 37.55 199.638 37.55C198.498 37.55 197.733 38.255 197.103 38.96L196.758 38.615C197.373 37.46 198.468 36.32 200.163 36.32C202.083 36.32 203.193 37.52 203.193 39.335C203.193 41.525 200.913 43.145 198.378 45.725ZM211.377 38.84C211.377 40.055 210.327 40.925 209.307 41.255L209.832 41.51C210.972 42.08 211.782 42.89 211.782 44.21C211.782 45.785 210.702 47.15 208.242 47.15C206.142 47.15 204.702 46.025 204.702 44.33C204.702 43.01 205.707 42.125 206.997 41.69L206.817 41.6C205.797 41.09 205.107 40.37 205.107 39.08C205.107 37.55 206.202 36.32 208.242 36.32C210.147 36.32 211.377 37.34 211.377 38.84ZM208.977 42.635L207.387 41.885C206.427 42.47 206.052 43.355 206.052 44.33C206.052 45.59 206.922 46.445 208.242 46.445C209.577 46.445 210.477 45.725 210.477 44.525C210.477 43.565 209.802 43.025 208.977 42.635ZM207.777 40.46L208.917 41.045C209.817 40.505 210.132 39.785 210.132 38.84C210.132 37.715 209.367 37.025 208.242 37.025C207.072 37.025 206.397 37.715 206.397 38.69C206.397 39.575 206.877 39.995 207.777 40.46ZM217.148 36.32C219.818 36.32 221.228 38.72 221.228 41.735C221.228 44.75 219.818 47.15 217.148 47.15C214.463 47.15 213.053 44.75 213.053 41.735C213.053 38.72 214.463 36.32 217.148 36.32ZM217.148 37.07C215.228 37.07 214.733 39.38 214.733 41.735C214.733 44.09 215.228 46.415 217.148 46.415C219.053 46.415 219.548 44.09 219.548 41.735C219.548 39.38 219.053 37.07 217.148 37.07ZM229.919 42.995H226.019V41.855H229.919V42.995ZM238.318 41.045C240.193 41.24 241.408 42.365 241.408 43.88C241.408 45.95 239.713 47.15 237.733 47.15C235.528 47.15 234.373 46.13 234.373 45.05C234.373 44.525 234.718 44.15 235.033 43.985H235.843V44.495C235.843 45.74 236.548 46.475 237.823 46.475C239.158 46.475 239.878 45.65 239.878 44.345C239.878 42.755 238.588 41.975 236.833 41.975H236.308L236.203 41.465C237.943 41.03 239.308 40.445 239.308 38.975C239.308 38.015 238.618 37.475 237.658 37.475C236.638 37.475 235.843 38.075 235.378 38.885L235.003 38.585C235.513 37.385 236.563 36.32 238.198 36.32C239.833 36.32 240.778 37.295 240.778 38.615C240.778 40.01 239.428 40.79 238.318 41.045ZM243.964 45.725H246.409C247.669 45.725 248.134 45.59 248.869 44.18H249.304L248.689 47H242.119V46.67L244.744 43.91C246.754 41.795 247.234 40.85 247.234 39.605C247.234 38.285 246.514 37.55 245.224 37.55C244.084 37.55 243.319 38.255 242.689 38.96L242.344 38.615C242.959 37.46 244.054 36.32 245.749 36.32C247.669 36.32 248.779 37.52 248.779 39.335C248.779 41.525 246.499 43.145 243.964 45.725ZM254.458 36.32C257.128 36.32 258.538 38.72 258.538 41.735C258.538 44.75 257.128 47.15 254.458 47.15C251.773 47.15 250.363 44.75 250.363 41.735C250.363 38.72 251.773 36.32 254.458 36.32ZM254.458 37.07C252.538 37.07 252.043 39.38 252.043 41.735C252.043 44.09 252.538 46.415 254.458 46.415C256.363 46.415 256.858 44.09 256.858 41.735C256.858 39.38 256.363 37.07 254.458 37.07Z" fill="black"/>
<path d="M273.048 24.39L273.798 25.155L271.248 27.705L273.783 30.255L273.033 31.02L270.468 28.485L267.963 31.02L267.183 30.255L269.718 27.705L267.168 25.17L267.948 24.39L270.483 26.955L273.048 24.39Z" fill="black"/>
<path d="M283.692 27.045C285.567 27.24 286.782 28.365 286.782 29.88C286.782 31.95 285.087 33.15 283.107 33.15C280.902 33.15 279.747 32.13 279.747 31.05C279.747 30.525 280.092 30.15 280.407 29.985H281.217V30.495C281.217 31.74 281.922 32.475 283.197 32.475C284.532 32.475 285.252 31.65 285.252 30.345C285.252 28.755 283.962 27.975 282.207 27.975H281.682L281.577 27.465C283.317 27.03 284.682 26.445 284.682 24.975C284.682 24.015 283.992 23.475 283.032 23.475C282.012 23.475 281.217 24.075 280.752 24.885L280.377 24.585C280.887 23.385 281.937 22.32 283.572 22.32C285.207 22.32 286.152 23.295 286.152 24.615C286.152 26.01 284.802 26.79 283.692 27.045ZM289.337 31.725H291.782C293.042 31.725 293.507 31.59 294.242 30.18H294.677L294.062 33H287.492V32.67L290.117 29.91C292.127 27.795 292.607 26.85 292.607 25.605C292.607 24.285 291.887 23.55 290.597 23.55C289.457 23.55 288.692 24.255 288.062 24.96L287.717 24.615C288.332 23.46 289.427 22.32 291.122 22.32C293.042 22.32 294.152 23.52 294.152 25.335C294.152 27.525 291.872 29.145 289.337 31.725ZM299.832 22.32C302.502 22.32 303.912 24.72 303.912 27.735C303.912 30.75 302.502 33.15 299.832 33.15C297.147 33.15 295.737 30.75 295.737 27.735C295.737 24.72 297.147 22.32 299.832 22.32ZM299.832 23.07C297.912 23.07 297.417 25.38 297.417 27.735C297.417 30.09 297.912 32.415 299.832 32.415C301.737 32.415 302.232 30.09 302.232 27.735C302.232 25.38 301.737 23.07 299.832 23.07Z" fill="black"/>
<line x1="155" y1="52.5" x2="308" y2="52.5" stroke="black"/>
<path d="M227.787 61.335H228.117V70.32C228.117 71.235 228.432 71.295 230.052 71.4V72H224.577V71.4C226.197 71.295 226.647 71.235 226.647 70.32V63.36H224.577V62.895L225.042 62.835C226.482 62.625 227.052 62.355 227.787 61.335ZM237.401 61.815C234.506 62.655 232.871 64.515 232.601 66.57C233.246 65.835 234.251 65.355 235.286 65.355C237.086 65.355 238.346 66.495 238.346 68.46C238.346 70.695 236.831 72.15 234.761 72.15C232.361 72.15 230.996 70.275 230.996 67.845C230.996 64.395 233.306 61.965 237.101 61.335L237.401 61.815ZM234.491 66.345C233.741 66.345 232.991 66.66 232.571 66.975C232.541 67.23 232.526 67.635 232.526 67.83C232.526 70.035 233.486 71.445 234.851 71.445C236.171 71.445 236.861 70.47 236.861 68.925C236.861 67.29 236.006 66.345 234.491 66.345Z" fill="black"/>
<path d="M314.847 54.985H314.952C316.467 51.88 317.667 49.9 318.717 49.9C319.332 49.9 319.557 50.365 319.557 50.815C319.557 51.445 319.212 51.775 318.642 52.045H318.417C318.417 51.76 318.357 51.49 317.997 51.49C317.232 51.49 315.267 54.28 314.352 58H312.987L314.682 51.19L313.542 50.725L313.632 50.41L315.897 49.9H316.272L315.642 52.39L314.847 54.985ZM325.917 51.55C325.917 53.365 323.232 54.145 321.042 54.73V55.12C321.042 56.425 321.657 57.265 322.662 57.265C323.547 57.265 324.342 56.695 325.032 55.87L325.407 56.17C324.297 57.64 323.367 58.15 322.167 58.15C320.412 58.15 319.707 56.68 319.707 55.15C319.707 52.57 321.732 49.9 324.162 49.9C325.377 49.9 325.917 50.62 325.917 51.55ZM323.757 50.65C322.557 50.65 321.372 52.21 321.102 54.25C323.457 53.545 324.657 52.855 324.657 51.67C324.657 51.1 324.342 50.65 323.757 50.65ZM333.397 53.68H333.502C334.402 52.195 336.052 49.9 337.507 49.9C338.272 49.9 338.527 50.305 338.527 50.965C338.527 51.16 338.482 51.43 338.437 51.625L337.207 56.26C337.132 56.545 337.072 56.8 337.072 56.92C337.072 57.07 337.147 57.145 337.282 57.145C337.567 57.145 338.002 56.845 338.677 56.02L338.977 56.335C338.062 57.7 337.402 58.15 336.652 58.15C336.082 58.15 335.722 57.745 335.722 57.13C335.722 56.785 335.782 56.41 335.932 55.84L337.042 51.7C337.087 51.505 337.117 51.325 337.117 51.205C337.117 50.995 337.042 50.89 336.847 50.89C335.902 50.89 333.697 53.32 333.067 55.885L332.542 58H331.177L332.767 51.7C332.812 51.505 332.842 51.325 332.842 51.205C332.842 50.995 332.767 50.89 332.572 50.89C331.627 50.89 329.422 53.32 328.792 55.885L328.267 58H326.902L328.597 51.19L327.457 50.725L327.547 50.41L329.812 49.9H330.187L329.722 51.835L329.137 53.68H329.242C330.142 52.195 331.777 49.9 333.232 49.9C333.952 49.9 334.132 50.305 334.132 50.83C334.132 51.31 333.907 52.21 333.397 53.68Z" fill="black"/>
</svg>
